<svg width="548" height="44" viewBox="0 0 548 44" fill="none" xmlns="http://www.w3.org/2000/svg">
<path d="M7.00391 27.3516V37H0.148438V8.5625H11.4961C13.6706 8.5625 15.5911 8.96615 17.2578 9.77344C18.9375 10.5677 20.2331 11.707 21.1445 13.1914C22.069 14.6628 22.5312 16.3359 22.5312 18.2109C22.5312 20.9844 21.5352 23.2044 19.543 24.8711C17.5638 26.5247 14.8424 27.3516 11.3789 27.3516H7.00391ZM7.00391 22.0586H11.4961C12.8242 22.0586 13.8333 21.7266 14.5234 21.0625C15.2266 20.3984 15.5781 19.4609 15.5781 18.25C15.5781 16.9219 15.2201 15.8607 14.5039 15.0664C13.7878 14.2721 12.8112 13.8685 11.5742 13.8555H7.00391V22.0586ZM38.8789 31.6875H29.4844L27.8438 37H20.5195L30.9492 8.5625H37.3945L47.9023 37H40.5391L38.8789 31.6875ZM31.125 26.3945H37.2383L34.1719 16.5312L31.125 26.3945ZM69.2109 13.8555H56.8867V18.3477H60.4219C62.6745 18.3477 64.6667 18.7318 66.3984 19.5C68.1302 20.2682 69.4583 21.3555 70.3828 22.7617C71.3203 24.1549 71.7891 25.7565 71.7891 27.5664C71.7891 30.3659 70.7474 32.638 68.6641 34.3828C66.5938 36.1276 63.8073 37 60.3047 37H49.9922V8.5625H69.2109V13.8555ZM56.8867 23.6211V31.7266H60.4023C61.7956 31.7266 62.8958 31.3359 63.7031 30.5547C64.5234 29.7734 64.9336 28.7643 64.9336 27.5273C64.9336 26.3555 64.5299 25.4115 63.7227 24.6953C62.9154 23.9792 61.7956 23.6211 60.3633 23.6211H56.8867ZM99.0742 23.3672C99.0742 26.1406 98.5599 28.5951 97.5312 30.7305C96.5026 32.8659 95.0378 34.513 93.1367 35.6719C91.2487 36.8177 89.0938 37.3906 86.6719 37.3906C84.25 37.3906 82.1016 36.8372 80.2266 35.7305C78.3516 34.6107 76.8867 33.0156 75.832 30.9453C74.7904 28.875 74.2435 26.4987 74.1914 23.8164V22.2148C74.1914 19.4284 74.6992 16.974 75.7148 14.8516C76.7435 12.7161 78.2083 11.069 80.1094 9.91016C82.0234 8.7513 84.1979 8.17188 86.6328 8.17188C89.0417 8.17188 91.1901 8.74479 93.0781 9.89062C94.9661 11.0365 96.431 12.6706 97.4727 14.793C98.5273 16.9023 99.0612 19.3242 99.0742 22.0586V23.3672ZM92.1016 22.1758C92.1016 19.3503 91.6263 17.2083 90.6758 15.75C89.7383 14.2786 88.3906 13.543 86.6328 13.543C83.1953 13.543 81.3789 16.1211 81.1836 21.2773L81.1641 23.3672C81.1641 26.1536 81.6263 28.2956 82.5508 29.793C83.4753 31.2904 84.849 32.0391 86.6719 32.0391C88.4036 32.0391 89.7383 31.3034 90.6758 29.832C91.6133 28.3607 92.0885 26.2448 92.1016 23.4844V22.1758ZM123.254 13.8555H114.719V37H107.863V13.8555H99.4844V8.5625H123.254V13.8555ZM139.973 31.6875H130.578L128.938 37H121.613L132.043 8.5625H138.488L148.996 37H141.633L139.973 31.6875ZM132.219 26.3945H138.332L135.266 16.5312L132.219 26.3945ZM167.766 8.5625H174.621V37H167.766V19.0703L157.551 37H150.695V8.5625H157.551V26.5117L167.766 8.5625ZM169.934 0.90625C169.934 2.6901 169.276 4.13542 167.961 5.24219C166.646 6.34896 164.895 6.90234 162.707 6.90234C160.52 6.90234 158.768 6.34896 157.453 5.24219C156.138 4.13542 155.48 2.6901 155.48 0.90625H159.953C159.953 1.6875 160.194 2.29948 160.676 2.74219C161.171 3.17188 161.848 3.38672 162.707 3.38672C163.566 3.38672 164.23 3.17839 164.699 2.76172C165.181 2.33203 165.422 1.71354 165.422 0.90625H169.934ZM201.145 13.8555H192.609V37H185.754V13.8555H177.375V8.5625H201.145V13.8555ZM221.691 24.9492H210.91V31.7266H223.645V37H204.055V8.5625H223.684V13.8555H210.91V19.8516H221.691V24.9492ZM260.285 37H253.43V13.8555H243.215V37H236.359V8.5625H260.285V37ZM271.418 27.3516V37H264.562V8.5625H275.91C278.085 8.5625 280.005 8.96615 281.672 9.77344C283.352 10.5677 284.647 11.707 285.559 13.1914C286.483 14.6628 286.945 16.3359 286.945 18.2109C286.945 20.9844 285.949 23.2044 283.957 24.8711C281.978 26.5247 279.257 27.3516 275.793 27.3516H271.418ZM271.418 22.0586H275.91C277.238 22.0586 278.247 21.7266 278.938 21.0625C279.641 20.3984 279.992 19.4609 279.992 18.25C279.992 16.9219 279.634 15.8607 278.918 15.0664C278.202 14.2721 277.225 13.8685 275.988 13.8555H271.418V22.0586ZM314.699 23.3672C314.699 26.1406 314.185 28.5951 313.156 30.7305C312.128 32.8659 310.663 34.513 308.762 35.6719C306.874 36.8177 304.719 37.3906 302.297 37.3906C299.875 37.3906 297.727 36.8372 295.852 35.7305C293.977 34.6107 292.512 33.0156 291.457 30.9453C290.415 28.875 289.868 26.4987 289.816 23.8164V22.2148C289.816 19.4284 290.324 16.974 291.34 14.8516C292.368 12.7161 293.833 11.069 295.734 9.91016C297.648 8.7513 299.823 8.17188 302.258 8.17188C304.667 8.17188 306.815 8.74479 308.703 9.89062C310.591 11.0365 312.056 12.6706 313.098 14.793C314.152 16.9023 314.686 19.3242 314.699 22.0586V23.3672ZM307.727 22.1758C307.727 19.3503 307.251 17.2083 306.301 15.75C305.363 14.2786 304.016 13.543 302.258 13.543C298.82 13.543 297.004 16.1211 296.809 21.2773L296.789 23.3672C296.789 26.1536 297.251 28.2956 298.176 29.793C299.1 31.2904 300.474 32.0391 302.297 32.0391C304.029 32.0391 305.363 31.3034 306.301 29.832C307.238 28.3607 307.714 26.2448 307.727 23.4844V22.1758ZM344.172 43.9922H338.02V37H322.531V43.9727H316.184L315.695 31.7266H317.707C318.762 31.0234 319.608 29.819 320.246 28.1133C320.897 26.3945 321.359 23.9336 321.633 20.7305L322.512 8.5625H341.867V31.7266H344.895L344.172 43.9922ZM325.461 31.7266H335.031V13.8555H328.977L328.449 20.9648C328.059 25.5742 327.062 29.1615 325.461 31.7266ZM358.293 20.9062V20.9258L363 8.5625H370.227L360.656 31.1211C359.628 33.3997 358.469 35.0078 357.18 35.9453C355.904 36.8698 354.406 37.3581 352.688 37.4102H351.301L350.246 37.3711L350.129 32.0586C350.285 32.1107 350.741 32.1367 351.496 32.1367C352.538 32.1367 353.319 31.9609 353.84 31.6094C354.374 31.2448 354.803 30.5482 355.129 29.5195L355.461 28.582L345.188 8.5625H352.473L358.293 20.9062ZM382.629 25.75H379.387V37H372.531V8.5625H379.387V19.5586H382.023L387.492 8.5625H395.793L387.98 21.6875L396.77 37H388.664L382.629 25.75ZM420.793 13.8555H412.258V37H405.402V13.8555H397.023V8.5625H420.793V13.8555ZM440.383 8.5625H447.238V37H440.383V19.0703L430.168 37H423.312V8.5625H430.168V26.5117L440.383 8.5625ZM451.438 37V8.5625H461.652C465.311 8.5625 468.091 9.23307 469.992 10.5742C471.906 11.9154 472.863 13.862 472.863 16.4141C472.863 17.8854 472.525 19.1419 471.848 20.1836C471.171 21.2253 470.174 21.9935 468.859 22.4883C470.344 22.8789 471.483 23.6081 472.277 24.6758C473.072 25.7435 473.469 27.0456 473.469 28.582C473.469 31.3685 472.583 33.4648 470.812 34.8711C469.055 36.2643 466.444 36.974 462.98 37H451.438ZM458.293 24.9102V31.7266H462.785C464.022 31.7266 464.973 31.4466 465.637 30.8867C466.301 30.3138 466.633 29.513 466.633 28.4844C466.633 26.1146 465.454 24.9232 463.098 24.9102H458.293ZM458.293 20.418H461.867C463.365 20.4049 464.432 20.1315 465.07 19.5977C465.708 19.0638 466.027 18.276 466.027 17.2344C466.027 16.0365 465.682 15.1771 464.992 14.6562C464.302 14.1224 463.189 13.8555 461.652 13.8555H458.293V20.418ZM501.027 37H494.211V25.125H484.113V37H477.258V8.5625H484.113V19.8516H494.211V8.5625H501.027V37ZM523.02 24.9492H512.238V31.7266H524.973V37H505.383V8.5625H525.012V13.8555H512.238V19.8516H523.02V24.9492ZM545.402 24.9492H534.621V31.7266H547.355V37H527.766V8.5625H547.395V13.8555H534.621V19.8516H545.402V24.9492Z" fill="#2F3132"/>
</svg>
